# xmcd
#
# Track frame offsets: 
#        150
#        11971
#        27311
#        38156
#        50471
#        62338
#        73168
#        86500
#        95888
#        107873
#        121553
#        131804
#        147085
#        160659
#        170240
#        183680
#        195870
#        208905
#
# Disc length: 2999 seconds
#
# Revision: 0
# Processed by: cddbd v1.5.2PL0 Copyright (c) Steve Scherf et al.
# Submitted via: ExactAudioCopy v0.99pb4
#
DISCID=050bb512
DTITLE=JJ Cale - Gold [CDTwo)
DYEAR=2008
DGENRE=Blues
TTITLE0=Hey Baby
TTITLE1=Thirteen Days
TTITLE2=Don't Cry Sister
TTITLE3=Mona
TTITLE4=I'll Make Love To You Anytime
TTITLE5=Sensitive Kind
TTITLE6=Boilin' Pot
TTITLE7=Carry On
TTITLE8=Wish I Had Been Gone
TTITLE9=Love Has Been Gone
TTITLE10=Don't Wait
TTITLE11=Devil in Disquise
TTITLE12=City Girls
TTITLE13=A Thing Going On
TTITLE14=Money Talks
TTITLE15=Hard Times
TTITLE16=Teardrops In My Tequila
TTITLE17=Trouble In The Citi
EXTD=
EXTT0=
EXTT1=
EXTT2=
EXTT3=
EXTT4=
EXTT5=
EXTT6=
EXTT7=
EXTT8=
EXTT9=
EXTT10=
EXTT11=
EXTT12=
EXTT13=
EXTT14=
EXTT15=
EXTT16=
EXTT17=
PLAYORDER=
